<mxfile><diagram id="IzG7a3cqAIBmP9c-uOni" name="Page-1"><mxGraphModel dx="962" dy="990" grid="1" gridSize="10" guides="1" tooltips="1" connect="1" arrows="1" fold="1" page="1" pageScale="1" pageWidth="827" pageHeight="1169" math="0" shadow="0"><root><mxCell id="0"/><mxCell id="1" parent="0"/><mxCell id="Wy_21Op2X0B6NZCzpTQm-1" value="User enter search word (3 letters min)" style="rounded=1;whiteSpace=wrap;html=1;fillColor=#1ba1e2;strokeColor=#006EAF;fontStyle=1;fontColor=#ffffff;" parent="1" vertex="1"><mxGeometry x="300" y="10" width="120" height="60" as="geometry"/></mxCell><mxCell id="Wy_21Op2X0B6NZCzpTQm-2" value="init search" style="rhombus;whiteSpace=wrap;html=1;fillColor=#f0a30a;strokeColor=#BD7000;fontStyle=1;fontColor=#000000;" parent="1" vertex="1"><mxGeometry x="320" y="240" width="80" height="80" as="geometry"/></mxCell><mxCell id="Wy_21Op2X0B6NZCzpTQm-3" value="recipes.json" style="ellipse;whiteSpace=wrap;html=1;aspect=fixed;fillColor=#008a00;strokeColor=#005700;fontColor=#ffffff;" parent="1" vertex="1"><mxGeometry x="110" y="240" width="80" height="80" as="geometry"/></mxCell><mxCell id="Wy_21Op2X0B6NZCzpTQm-4" value="convert query string toLowerCase" style="rounded=0;whiteSpace=wrap;html=1;fillColor=#f5f5f5;fontColor=#333333;strokeColor=#666666;" parent="1" vertex="1"><mxGeometry x="300" y="360" width="120" height="60" as="geometry"/></mxCell><mxCell id="Wy_21Op2X0B6NZCzpTQm-5" value="object RECIPES" style="shape=hexagon;perimeter=hexagonPerimeter2;whiteSpace=wrap;html=1;fixedSize=1;fillColor=#f0a30a;strokeColor=#BD7000;fontStyle=1;fontColor=#000000;" parent="1" vertex="1"><mxGeometry x="300" y="480" width="120" height="80" as="geometry"/></mxCell><mxCell id="Wy_21Op2X0B6NZCzpTQm-6" value="recipe #n" style="rounded=1;whiteSpace=wrap;html=1;fillColor=#647687;fontColor=#ffffff;strokeColor=#314354;fontStyle=1;fontSize=14;" parent="1" vertex="1"><mxGeometry x="40" y="630" width="120" height="260" as="geometry"/></mxCell><mxCell id="Wy_21Op2X0B6NZCzpTQm-7" value="check for query in recipe.name" style="rounded=0;whiteSpace=wrap;html=1;fillColor=#647687;strokeColor=#314354;fontColor=#ffffff;" parent="1" vertex="1"><mxGeometry x="200" y="630" width="120" height="60" as="geometry"/></mxCell><mxCell id="Wy_21Op2X0B6NZCzpTQm-8" value="check for query in recipe.description" style="rounded=0;whiteSpace=wrap;html=1;fillColor=#647687;strokeColor=#314354;fontColor=#ffffff;" parent="1" vertex="1"><mxGeometry x="200" y="730" width="120" height="60" as="geometry"/></mxCell><mxCell id="Wy_21Op2X0B6NZCzpTQm-9" value="check for query in recipe.ingredients" style="rounded=0;whiteSpace=wrap;html=1;fillColor=#647687;strokeColor=#314354;fontColor=#ffffff;" parent="1" vertex="1"><mxGeometry x="200" y="830" width="120" height="60" as="geometry"/></mxCell><mxCell id="Wy_21Op2X0B6NZCzpTQm-10" value="iteration ended&lt;br style=&quot;font-size: 11px;&quot;&gt;?" style="rhombus;whiteSpace=wrap;html=1;fillColor=#a20025;strokeColor=#6F0000;fontStyle=1;fontSize=11;verticalAlign=middle;labelPosition=center;verticalLabelPosition=middle;align=center;spacingTop=11;fontColor=#ffffff;" parent="1" vertex="1"><mxGeometry x="550" y="630" width="80" height="80" as="geometry"/></mxCell><mxCell id="Wy_21Op2X0B6NZCzpTQm-11" value="RESULT array" style="shape=hexagon;perimeter=hexagonPerimeter2;whiteSpace=wrap;html=1;fixedSize=1;fillColor=#f0a30a;strokeColor=#BD7000;fontStyle=1;fontColor=#000000;" parent="1" vertex="1"><mxGeometry x="410" y="720" width="120" height="80" as="geometry"/></mxCell><mxCell id="Wy_21Op2X0B6NZCzpTQm-12" value="Iterate RESULT to DOM" style="rounded=1;whiteSpace=wrap;html=1;fillColor=#1ba1e2;fontColor=#ffffff;strokeColor=#006EAF;" parent="1" vertex="1"><mxGeometry x="670" y="730" width="120" height="60" as="geometry"/></mxCell><mxCell id="Wy_21Op2X0B6NZCzpTQm-14" value="&amp;nbsp;getRecipes()&amp;nbsp;" style="endArrow=classic;startArrow=classic;html=1;rounded=0;entryX=0;entryY=0.5;entryDx=0;entryDy=0;exitX=1;exitY=0.5;exitDx=0;exitDy=0;" parent="1" source="Wy_21Op2X0B6NZCzpTQm-3" target="Wy_21Op2X0B6NZCzpTQm-2" edge="1"><mxGeometry width="50" height="50" relative="1" as="geometry"><mxPoint x="200" y="310" as="sourcePoint"/><mxPoint x="250" y="260" as="targetPoint"/></mxGeometry></mxCell><mxCell id="Wy_21Op2X0B6NZCzpTQm-15" value="" style="endArrow=classic;html=1;rounded=0;entryX=0.5;entryY=0;entryDx=0;entryDy=0;exitX=0.5;exitY=1;exitDx=0;exitDy=0;" parent="1" source="Wy_21Op2X0B6NZCzpTQm-1" target="Wy_21Op2X0B6NZCzpTQm-2" edge="1"><mxGeometry width="50" height="50" relative="1" as="geometry"><mxPoint x="370" y="220" as="sourcePoint"/><mxPoint x="420" y="170" as="targetPoint"/></mxGeometry></mxCell><mxCell id="Wy_21Op2X0B6NZCzpTQm-16" value="" style="endArrow=classic;html=1;rounded=0;exitX=0.5;exitY=1;exitDx=0;exitDy=0;entryX=0.5;entryY=0;entryDx=0;entryDy=0;" parent="1" source="Wy_21Op2X0B6NZCzpTQm-2" target="Wy_21Op2X0B6NZCzpTQm-4" edge="1"><mxGeometry width="50" height="50" relative="1" as="geometry"><mxPoint x="190" y="400" as="sourcePoint"/><mxPoint x="240" y="350" as="targetPoint"/></mxGeometry></mxCell><mxCell id="Wy_21Op2X0B6NZCzpTQm-17" value="" style="endArrow=classic;html=1;rounded=0;exitX=0.5;exitY=1;exitDx=0;exitDy=0;" parent="1" source="Wy_21Op2X0B6NZCzpTQm-4" target="Wy_21Op2X0B6NZCzpTQm-5" edge="1"><mxGeometry width="50" height="50" relative="1" as="geometry"><mxPoint x="240" y="500" as="sourcePoint"/><mxPoint x="290" y="450" as="targetPoint"/></mxGeometry></mxCell><mxCell id="Wy_21Op2X0B6NZCzpTQm-18" value="create empty array" style="endArrow=classic;html=1;rounded=0;exitX=0.839;exitY=0.987;exitDx=0;exitDy=0;exitPerimeter=0;entryX=0.5;entryY=0;entryDx=0;entryDy=0;" parent="1" source="Wy_21Op2X0B6NZCzpTQm-5" target="Wy_21Op2X0B6NZCzpTQm-11" edge="1"><mxGeometry x="0.1316" width="50" height="50" relative="1" as="geometry"><mxPoint x="360" y="640" as="sourcePoint"/><mxPoint x="450" y="690" as="targetPoint"/><Array as="points"><mxPoint x="470" y="559"/></Array><mxPoint as="offset"/></mxGeometry></mxCell><mxCell id="Wy_21Op2X0B6NZCzpTQm-19" value="&amp;nbsp;loop each recipe&amp;nbsp;" style="endArrow=classic;html=1;rounded=0;exitX=0;exitY=0.5;exitDx=0;exitDy=0;entryX=0.5;entryY=0;entryDx=0;entryDy=0;" parent="1" source="Wy_21Op2X0B6NZCzpTQm-5" target="Wy_21Op2X0B6NZCzpTQm-6" edge="1"><mxGeometry x="-0.3548" width="50" height="50" relative="1" as="geometry"><mxPoint x="110" y="560" as="sourcePoint"/><mxPoint x="160" y="510" as="targetPoint"/><Array as="points"><mxPoint x="100" y="520"/></Array><mxPoint as="offset"/></mxGeometry></mxCell><mxCell id="Wy_21Op2X0B6NZCzpTQm-20" value="" style="endArrow=classic;html=1;rounded=0;entryX=0;entryY=0.5;entryDx=0;entryDy=0;" parent="1" target="Wy_21Op2X0B6NZCzpTQm-7" edge="1"><mxGeometry width="50" height="50" relative="1" as="geometry"><mxPoint x="160" y="660" as="sourcePoint"/><mxPoint x="200" y="570" as="targetPoint"/></mxGeometry></mxCell><mxCell id="Wy_21Op2X0B6NZCzpTQm-21" value="" style="endArrow=classic;html=1;rounded=0;exitX=0.5;exitY=1;exitDx=0;exitDy=0;entryX=0.5;entryY=0;entryDx=0;entryDy=0;" parent="1" source="Wy_21Op2X0B6NZCzpTQm-7" target="Wy_21Op2X0B6NZCzpTQm-8" edge="1"><mxGeometry width="50" height="50" relative="1" as="geometry"><mxPoint x="120" y="740" as="sourcePoint"/><mxPoint x="170" y="690" as="targetPoint"/></mxGeometry></mxCell><mxCell id="Wy_21Op2X0B6NZCzpTQm-22" value="" style="endArrow=classic;html=1;rounded=0;exitX=0.5;exitY=1;exitDx=0;exitDy=0;entryX=0.5;entryY=0;entryDx=0;entryDy=0;" parent="1" edge="1"><mxGeometry width="50" height="50" relative="1" as="geometry"><mxPoint x="259.66" y="790" as="sourcePoint"/><mxPoint x="259.66" y="830" as="targetPoint"/></mxGeometry></mxCell><mxCell id="Wy_21Op2X0B6NZCzpTQm-23" value="&amp;nbsp;register result&amp;nbsp;" style="endArrow=classic;html=1;rounded=0;entryX=0.5;entryY=1;entryDx=0;entryDy=0;exitX=1;exitY=0.5;exitDx=0;exitDy=0;" parent="1" source="zp0XxfTOB2ZOI0WdYHoq-2" target="Wy_21Op2X0B6NZCzpTQm-11" edge="1"><mxGeometry x="-0.4054" width="50" height="50" relative="1" as="geometry"><mxPoint x="370" y="990" as="sourcePoint"/><mxPoint x="259.66" y="930" as="targetPoint"/><Array as="points"><mxPoint x="350" y="1000"/><mxPoint x="470" y="1000"/><mxPoint x="470" y="920"/></Array><mxPoint as="offset"/></mxGeometry></mxCell><mxCell id="Wy_21Op2X0B6NZCzpTQm-24" value="&amp;nbsp;short circuit&amp;nbsp;" style="endArrow=none;dashed=1;html=1;rounded=0;" parent="1" edge="1"><mxGeometry x="-0.6667" width="50" height="50" relative="1" as="geometry"><mxPoint x="260" y="710" as="sourcePoint"/><mxPoint x="350" y="920" as="targetPoint"/><Array as="points"><mxPoint x="350" y="710"/></Array><mxPoint as="offset"/></mxGeometry></mxCell><mxCell id="Wy_21Op2X0B6NZCzpTQm-25" value="&amp;nbsp;short circuit&amp;nbsp;" style="endArrow=none;dashed=1;html=1;rounded=0;" parent="1" edge="1"><mxGeometry width="50" height="50" relative="1" as="geometry"><mxPoint x="260" y="810" as="sourcePoint"/><mxPoint x="350" y="810" as="targetPoint"/></mxGeometry></mxCell><mxCell id="Wy_21Op2X0B6NZCzpTQm-26" value="" style="endArrow=classic;html=1;rounded=0;" parent="1" edge="1"><mxGeometry width="50" height="50" relative="1" as="geometry"><mxPoint x="350" y="900" as="sourcePoint"/><mxPoint x="350" y="1000" as="targetPoint"/></mxGeometry></mxCell><mxCell id="Wy_21Op2X0B6NZCzpTQm-28" value="" style="endArrow=classic;html=1;rounded=0;entryX=0;entryY=1;entryDx=0;entryDy=0;exitX=1;exitY=0.5;exitDx=0;exitDy=0;" parent="1" source="Wy_21Op2X0B6NZCzpTQm-11" target="Wy_21Op2X0B6NZCzpTQm-10" edge="1"><mxGeometry width="50" height="50" relative="1" as="geometry"><mxPoint x="300" y="700" as="sourcePoint"/><mxPoint x="350" y="650" as="targetPoint"/><Array as="points"><mxPoint x="570" y="760"/></Array></mxGeometry></mxCell><mxCell id="Wy_21Op2X0B6NZCzpTQm-29" value="" style="endArrow=classic;html=1;rounded=0;entryX=1;entryY=0.5;entryDx=0;entryDy=0;exitX=0.5;exitY=0;exitDx=0;exitDy=0;" parent="1" source="Wy_21Op2X0B6NZCzpTQm-10" target="Wy_21Op2X0B6NZCzpTQm-5" edge="1"><mxGeometry width="50" height="50" relative="1" as="geometry"><mxPoint x="510" y="630" as="sourcePoint"/><mxPoint x="560" y="580" as="targetPoint"/><Array as="points"><mxPoint x="590" y="520"/></Array></mxGeometry></mxCell><mxCell id="Wy_21Op2X0B6NZCzpTQm-30" value="" style="endArrow=classic;html=1;rounded=0;entryX=0;entryY=0.5;entryDx=0;entryDy=0;exitX=1;exitY=1;exitDx=0;exitDy=0;" parent="1" source="Wy_21Op2X0B6NZCzpTQm-10" target="Wy_21Op2X0B6NZCzpTQm-12" edge="1"><mxGeometry width="50" height="50" relative="1" as="geometry"><mxPoint x="590" y="770" as="sourcePoint"/><mxPoint x="640" y="720" as="targetPoint"/><Array as="points"><mxPoint x="610" y="760"/></Array></mxGeometry></mxCell><mxCell id="Wy_21Op2X0B6NZCzpTQm-31" value="&amp;nbsp;display results&amp;nbsp;" style="endArrow=classic;html=1;rounded=0;exitX=0.917;exitY=0;exitDx=0;exitDy=0;entryX=1;entryY=0.5;entryDx=0;entryDy=0;exitPerimeter=0;" parent="1" source="Wy_21Op2X0B6NZCzpTQm-12" edge="1"><mxGeometry x="0.8901" y="-10" width="50" height="50" relative="1" as="geometry"><mxPoint x="710" y="730" as="sourcePoint"/><mxPoint x="420" y="40" as="targetPoint"/><Array as="points"><mxPoint x="780" y="40"/></Array><mxPoint as="offset"/></mxGeometry></mxCell><mxCell id="Wy_21Op2X0B6NZCzpTQm-32" value="NO" style="text;html=1;strokeColor=none;fillColor=none;align=center;verticalAlign=middle;whiteSpace=wrap;rounded=0;fontStyle=1" parent="1" vertex="1"><mxGeometry x="543" y="600" width="60" height="30" as="geometry"/></mxCell><mxCell id="Wy_21Op2X0B6NZCzpTQm-33" value="YES" style="text;html=1;strokeColor=none;fillColor=none;align=center;verticalAlign=middle;whiteSpace=wrap;rounded=0;fontStyle=1" parent="1" vertex="1"><mxGeometry x="599" y="692" width="60" height="30" as="geometry"/></mxCell><mxCell id="zp0XxfTOB2ZOI0WdYHoq-1" value="&lt;b style=&quot;font-size: 14px;&quot;&gt;ingredient #n&lt;/b&gt;" style="rounded=1;whiteSpace=wrap;html=1;fontSize=14;fillColor=#647687;strokeColor=#314354;fontColor=#ffffff;" parent="1" vertex="1"><mxGeometry x="40" y="970" width="120" height="60" as="geometry"/></mxCell><mxCell id="zp0XxfTOB2ZOI0WdYHoq-2" value="iteration ended&lt;br style=&quot;font-size: 11px;&quot;&gt;?" style="rhombus;whiteSpace=wrap;html=1;fillColor=#a20025;strokeColor=#6F0000;fontStyle=1;fontSize=11;verticalAlign=middle;labelPosition=center;verticalLabelPosition=middle;align=center;spacingTop=11;fontColor=#ffffff;" parent="1" vertex="1"><mxGeometry x="220" y="960" width="80" height="80" as="geometry"/></mxCell><mxCell id="zp0XxfTOB2ZOI0WdYHoq-3" value="&amp;nbsp;loop each ingredient&amp;nbsp;" style="endArrow=classic;html=1;rounded=0;fontSize=11;exitX=0.5;exitY=1;exitDx=0;exitDy=0;entryX=0.5;entryY=0;entryDx=0;entryDy=0;" parent="1" source="Wy_21Op2X0B6NZCzpTQm-9" target="zp0XxfTOB2ZOI0WdYHoq-1" edge="1"><mxGeometry width="50" height="50" relative="1" as="geometry"><mxPoint x="390" y="790" as="sourcePoint"/><mxPoint x="440" y="740" as="targetPoint"/><Array as="points"><mxPoint x="260" y="920"/><mxPoint x="100" y="920"/></Array></mxGeometry></mxCell><mxCell id="zp0XxfTOB2ZOI0WdYHoq-4" value="" style="endArrow=classic;html=1;rounded=0;fontSize=11;exitX=0.5;exitY=0;exitDx=0;exitDy=0;" parent="1" source="zp0XxfTOB2ZOI0WdYHoq-2" edge="1"><mxGeometry width="50" height="50" relative="1" as="geometry"><mxPoint x="390" y="790" as="sourcePoint"/><mxPoint x="260" y="920" as="targetPoint"/></mxGeometry></mxCell><mxCell id="zp0XxfTOB2ZOI0WdYHoq-5" value="" style="endArrow=classic;html=1;rounded=0;fontSize=11;entryX=0;entryY=0.5;entryDx=0;entryDy=0;exitX=1;exitY=0.5;exitDx=0;exitDy=0;" parent="1" source="zp0XxfTOB2ZOI0WdYHoq-1" target="zp0XxfTOB2ZOI0WdYHoq-2" edge="1"><mxGeometry width="50" height="50" relative="1" as="geometry"><mxPoint x="80" y="1110" as="sourcePoint"/><mxPoint x="130" y="1060" as="targetPoint"/></mxGeometry></mxCell><mxCell id="zp0XxfTOB2ZOI0WdYHoq-6" value="YES" style="text;html=1;strokeColor=none;fillColor=none;align=center;verticalAlign=middle;whiteSpace=wrap;rounded=0;fontStyle=1" parent="1" vertex="1"><mxGeometry x="290" y="974" width="60" height="30" as="geometry"/></mxCell><mxCell id="zp0XxfTOB2ZOI0WdYHoq-8" value="NO" style="text;html=1;strokeColor=none;fillColor=none;align=center;verticalAlign=middle;whiteSpace=wrap;rounded=0;fontStyle=1" parent="1" vertex="1"><mxGeometry x="246" y="930" width="60" height="30" as="geometry"/></mxCell><mxCell id="2" value="init search" style="rhombus;whiteSpace=wrap;html=1;fillColor=#f0a30a;strokeColor=#BD7000;fontStyle=1;fontColor=#000000;" vertex="1" parent="1"><mxGeometry x="420" y="180" width="80" height="80" as="geometry"/></mxCell><mxCell id="3" value="2nd&lt;br&gt;increment search &lt;br&gt;?" style="rhombus;whiteSpace=wrap;html=1;fillColor=#a20025;strokeColor=#6F0000;fontStyle=1;fontSize=11;verticalAlign=middle;labelPosition=center;verticalLabelPosition=middle;align=center;spacingTop=11;fontColor=#ffffff;" vertex="1" parent="1"><mxGeometry x="320" y="110" width="80" height="80" as="geometry"/></mxCell><mxCell id="4" value="NO" style="text;html=1;strokeColor=none;fillColor=none;align=center;verticalAlign=middle;whiteSpace=wrap;rounded=0;fontStyle=1" vertex="1" parent="1"><mxGeometry x="314" y="197" width="60" height="30" as="geometry"/></mxCell><mxCell id="5" value="" style="endArrow=classic;html=1;exitX=1;exitY=0.5;exitDx=0;exitDy=0;entryX=0.5;entryY=0;entryDx=0;entryDy=0;" edge="1" parent="1" source="3" target="2"><mxGeometry width="50" height="50" relative="1" as="geometry"><mxPoint x="460" y="530" as="sourcePoint"/><mxPoint x="510" y="480" as="targetPoint"/><Array as="points"><mxPoint x="460" y="150"/></Array></mxGeometry></mxCell><mxCell id="6" value="YES" style="text;html=1;strokeColor=none;fillColor=none;align=center;verticalAlign=middle;whiteSpace=wrap;rounded=0;fontStyle=1" vertex="1" parent="1"><mxGeometry x="402" y="123" width="60" height="30" as="geometry"/></mxCell><mxCell id="7" value="recipes from OLD SEARCH" style="ellipse;whiteSpace=wrap;html=1;aspect=fixed;fillColor=#008a00;strokeColor=#005700;fontColor=#ffffff;" vertex="1" parent="1"><mxGeometry x="619" y="180" width="80" height="80" as="geometry"/></mxCell><mxCell id="8" value="&amp;nbsp;getRecipes()&amp;nbsp;" style="endArrow=classic;startArrow=classic;html=1;rounded=0;entryX=0;entryY=0.5;entryDx=0;entryDy=0;exitX=1;exitY=0.5;exitDx=0;exitDy=0;" edge="1" parent="1" source="2" target="7"><mxGeometry width="50" height="50" relative="1" as="geometry"><mxPoint x="525" y="250" as="sourcePoint"/><mxPoint x="655" y="250" as="targetPoint"/></mxGeometry></mxCell><mxCell id="9" value="" style="endArrow=classic;html=1;exitX=0.5;exitY=1;exitDx=0;exitDy=0;entryX=1;entryY=0.5;entryDx=0;entryDy=0;" edge="1" parent="1" source="2" target="Wy_21Op2X0B6NZCzpTQm-4"><mxGeometry width="50" height="50" relative="1" as="geometry"><mxPoint x="540" y="420" as="sourcePoint"/><mxPoint x="590" y="370" as="targetPoint"/><Array as="points"><mxPoint x="460" y="390"/></Array></mxGeometry></mxCell></root></mxGraphModel></diagram></mxfile>